<?xml version="1.0" encoding="UTF-8"?>
<svg width="256" height="256" viewBox="0 0 256 256" fill="none" xmlns="http://www.w3.org/2000/svg">
  <!-- 背景圆形渐变 -->
  <defs>
    <linearGradient id="bgGradient" x1="0%" y1="0%" x2="100%" y2="100%">
      <stop offset="0%" style="stop-color:#4F46E5;stop-opacity:1" />
      <stop offset="100%" style="stop-color:#7C3AED;stop-opacity:1" />
    </linearGradient>
    <linearGradient id="personGradient" x1="0%" y1="0%" x2="100%" y2="100%">
      <stop offset="0%" style="stop-color:#FFFFFF;stop-opacity:1" />
      <stop offset="100%" style="stop-color:#F3F4F6;stop-opacity:1" />
    </linearGradient>
  </defs>
  
  <!-- 背景圆形 -->
  <circle cx="128" cy="128" r="120" fill="url(#bgGradient)" stroke="#312E81" stroke-width="8"/>
  
  <!-- 主要人员图标 -->
  <g transform="translate(64, 60)">
    <!-- 头部 -->
    <circle cx="64" cy="48" r="28" fill="url(#personGradient)" stroke="#312E81" stroke-width="3"/>
    
    <!-- 身体 -->
    <path d="M 36 100 Q 36 85 50 85 L 78 85 Q 92 85 92 100 L 92 130 Q 92 140 82 140 L 46 140 Q 36 140 36 130 Z" 
          fill="url(#personGradient)" stroke="#312E81" stroke-width="3"/>
  </g>
  
  <!-- 小的人员图标组 -->
  <g transform="translate(160, 90)">
    <!-- 小人1 -->
    <circle cx="16" cy="16" r="10" fill="#E5E7EB" stroke="#374151" stroke-width="1.5"/>
    <path d="M 6 32 Q 6 28 10 28 L 22 28 Q 26 28 26 32 L 26 42 Q 26 45 23 45 L 9 45 Q 6 45 6 42 Z" 
          fill="#E5E7EB" stroke="#374151" stroke-width="1.5"/>
    
    <!-- 小人2 -->
    <g transform="translate(0, 35)">
      <circle cx="16" cy="16" r="10" fill="#E5E7EB" stroke="#374151" stroke-width="1.5"/>
      <path d="M 6 32 Q 6 28 10 28 L 22 28 Q 26 28 26 32 L 26 42 Q 26 45 23 45 L 9 45 Q 6 45 6 42 Z" 
            fill="#E5E7EB" stroke="#374151" stroke-width="1.5"/>
    </g>
    
    <!-- 小人3 -->
    <g transform="translate(0, 70)">
      <circle cx="16" cy="16" r="10" fill="#E5E7EB" stroke="#374151" stroke-width="1.5"/>
      <path d="M 6 32 Q 6 28 10 28 L 22 28 Q 26 28 26 32 L 26 42 Q 26 45 23 45 L 9 45 Q 6 45 6 42 Z" 
            fill="#E5E7EB" stroke="#374151" stroke-width="1.5"/>
    </g>
  </g>
  
  <!-- 管理符号 - 文档/清单 -->
  <g transform="translate(45, 170)">
    <rect x="0" y="0" width="50" height="60" rx="4" fill="#FFFFFF" stroke="#312E81" stroke-width="2"/>
    <line x1="8" y1="15" x2="42" y2="15" stroke="#4F46E5" stroke-width="2"/>
    <line x1="8" y1="25" x2="35" y2="25" stroke="#4F46E5" stroke-width="2"/>
    <line x1="8" y1="35" x2="38" y2="35" stroke="#4F46E5" stroke-width="2"/>
    <line x1="8" y1="45" x2="32" y2="45" stroke="#4F46E5" stroke-width="2"/>
  </g>
  
  <!-- 齿轮图标表示系统管理 -->
  <g transform="translate(180, 180)">
    <circle cx="20" cy="20" r="12" fill="none" stroke="#FFFFFF" stroke-width="3"/>
    <circle cx="20" cy="20" r="6" fill="#FFFFFF"/>
    <g stroke="#FFFFFF" stroke-width="2">
      <line x1="20" y1="2" x2="20" y2="8"/>
      <line x1="20" y1="32" x2="20" y2="38"/>
      <line x1="2" y1="20" x2="8" y2="20"/>
      <line x1="32" y1="20" x2="38" y2="20"/>
      <line x1="7.76" y1="7.76" x2="12.12" y2="12.12"/>
      <line x1="27.88" y1="27.88" x2="32.24" y2="32.24"/>
      <line x1="32.24" y1="7.76" x2="27.88" y2="12.12"/>
      <line x1="12.12" y1="27.88" x2="7.76" y2="32.24"/>
    </g>
  </g>
</svg>